<?xml version="1.0" standalone="no"?>
<!DOCTYPE svg PUBLIC "-//W3C//DTD SVG 20010904//EN"
 "http://www.w3.org/TR/2001/REC-SVG-20010904/DTD/svg10.dtd">
<svg version="1.0" xmlns="http://www.w3.org/2000/svg"
 width="256.000000pt" height="128.000000pt" viewBox="0 0 256.000000 128.000000"
 preserveAspectRatio="xMidYMid meet">
<metadata>
Created by potrace 1.15, written by Peter Selinger 2001-2017
</metadata>
<g transform="translate(0.000000,128.000000) scale(0.100000,-0.100000)"
fill="#000000" stroke="none">
<path d="M115 1228 c-3 -7 -4 -276 -3 -598 l3 -585 845 -2 845 -3 100 92 c170
155 187 170 285 258 52 47 115 104 140 126 25 23 62 56 83 74 44 38 46 58 9
90 -24 22 -290 262 -402 364 -25 23 -84 76 -131 119 l-86 77 -842 0 c-664 0
-843 -3 -846 -12z m1722 -80 c32 -29 60 -55 63 -58 3 -3 48 -43 100 -90 52
-47 100 -89 106 -95 6 -5 72 -66 147 -134 76 -68 137 -127 137 -132 0 -6 -98
-98 -180 -169 -14 -12 -45 -40 -70 -63 -25 -23 -88 -80 -140 -127 -52 -46
-123 -110 -157 -142 l-61 -58 -816 0 -816 0 0 560 0 560 814 0 814 0 59 -52z"/>
</g>
</svg>
